# xmcd
#
# Track frame offsets: 
#        150
#        12950
#        25687
#        39687
#        52464
#        63865
#        74711
#        86094
#        96836
#        108349
#        117282
#        127832
#        140907
#        154620
#        169377
#        179530
#        192053
#        206600
#        217358
#        232635
#        247553
#        260772
#        272394
#        284786
#        298666
#
# Disc length: 4150 seconds
#
# Revision: 1
# Processed by: cddbd v1.5.2PL0 Copyright (c) Steve Scherf et al.
# Submitted via: ExactAudioCopyFreeDBPlugin 1.0
#
DISCID=7f103419
DTITLE=Big Joe Turner - Big Joe Turner:  All the Classic Hits, 1938-19
DTITLE=52 [JSP Records]
DYEAR=2003
DGENRE=Rhythm and Blues
TTITLE0=Adam Bit the Apple
TTITLE1=Still in the Dark
TTITLE2=Life is Just a Card Game
TTITLE3=Jumpin' at the Jubilee
TTITLE4=Story to Tell
TTITLE5=Jumpin' Tonight
TTITLE6=Lucille
TTITLE7=Love My Baby
TTITLE8=Blues Jumped the Rabbit
TTITLE9=The Sun is Shining
TTITLE10=Just a Travelin' Man
TTITLE11=After a While You'll Be Sorry
TTITLE12=I Want My Baby (When the Rooster Crows)
TTITLE13=Midnight is Here Again
TTITLE14=Feelin' Happy
TTITLE15=The Chill is On
TTITLE16=After My Laughter Came Tears
TTITLE17=Bump Miss Suzie
TTITLE18=Chains of Love
TTITLE19=I'll Never Stop Lovin' You
TTITLE20=Sweet Sixteen
TTITLE21=Don't You Cry
TTITLE22=Poor Lover's Blues
TTITLE23=Still in Love (With You)
TTITLE24=Baby I Still Want You
EXTD=
EXTT0=
EXTT1=
EXTT2=
EXTT3=
EXTT4=
EXTT5=
EXTT6=
EXTT7=
EXTT8=
EXTT9=
EXTT10=
EXTT11=
EXTT12=
EXTT13=
EXTT14=
EXTT15=
EXTT16=
EXTT17=
EXTT18=
EXTT19=
EXTT20=
EXTT21=
EXTT22=
EXTT23=
EXTT24=
PLAYORDER=
